<svg width="1503" height="510" viewBox="0 0 1503 510" fill="none" xmlns="http://www.w3.org/2000/svg">
<g filter="url(#filter0_d_205_35)">
<path d="M532.35 60.95H465.3L391.5 96.95L418.05 156.8L465.3 134.75V392.15H532.35V60.95ZM699.789 174.35C679.539 174.35 668.739 177.95 652.089 186.05L653.439 127.1H790.239V61.85H593.589L589.539 228.8L637.239 255.35C649.389 244.55 670.539 240.05 690.789 240.05C725.889 240.05 746.589 260.75 746.589 285.5C746.589 309.8 725.889 330.05 690.789 330.05C667.839 330.05 645.339 321.05 634.539 308.9L630.939 304.4L571.539 334.1C574.239 338.15 578.289 342.2 579.639 344.9C602.589 376.85 648.489 396.2 690.789 396.2C760.539 396.2 810.039 347.15 810.039 285.5C810.039 222.95 768.639 174.35 699.789 174.35ZM836.821 338.15V404.3H905.221V338.15H836.821ZM1046.93 331.4C1019.03 331.4 994.275 306.65 994.275 273.8C994.275 241.85 1019.03 217.1 1046.93 217.1C1075.28 217.1 1100.03 241.85 1100.03 273.8C1100.03 306.65 1075.28 331.4 1046.93 331.4ZM924.975 274.25C924.975 346.7 975.825 397.1 1040.63 397.1C1057.28 397.1 1083.38 393.5 1106.78 366.5V393.05C1106.78 433.55 1054.58 440.75 1040.63 440.75C1032.08 440.75 1001.03 438.5 985.275 413.75L927.675 452.45C950.175 486.2 997.875 506 1040.63 506C1106.33 506 1175.63 468.2 1175.63 381.8V150.95H1106.78V181.55C1086.53 156.8 1056.38 151.85 1040.63 151.85C975.825 151.85 924.975 202.7 924.975 274.25ZM1322.69 331.4C1294.79 331.4 1270.04 306.65 1270.04 273.8C1270.04 241.85 1294.79 217.1 1322.69 217.1C1351.04 217.1 1375.79 241.85 1375.79 273.8C1375.79 306.65 1351.04 331.4 1322.69 331.4ZM1200.74 274.25C1200.74 346.7 1251.59 397.1 1316.39 397.1C1333.04 397.1 1359.14 393.5 1382.54 366.5V393.05C1382.54 433.55 1330.34 440.75 1316.39 440.75C1307.84 440.75 1276.79 438.5 1261.04 413.75L1203.44 452.45C1225.94 486.2 1273.64 506 1316.39 506C1382.09 506 1451.39 468.2 1451.39 381.8V150.95H1382.54V181.55C1362.29 156.8 1332.14 151.85 1316.39 151.85C1251.59 151.85 1200.74 202.7 1200.74 274.25Z" fill="url(#paint0_linear_205_35)"/>
</g>
<path d="M288.612 223.443L339.658 172.506C339.658 137.579 330.908 104.106 314.865 75L196 184.877V367.519H218.606C298.092 367.519 362.994 303.485 362.994 223.443H288.612Z" fill="url(#paint1_linear_205_35)"/>
<path d="M74.3815 259.769L23.3354 310.706C23.3354 345.633 32.0861 379.106 48.1292 408.212L166.994 298.335V115.693H144.388C64.9015 115.693 0 179.727 0 259.769H74.3815V259.769Z" fill="url(#paint2_linear_205_35)"/>
<defs>
<filter id="filter0_d_205_35" x="389.5" y="60.95" width="1063.89" height="449.05" filterUnits="userSpaceOnUse" color-interpolation-filters="sRGB">
<feFlood flood-opacity="0" result="BackgroundImageFix"/>
<feColorMatrix in="SourceAlpha" type="matrix" values="0 0 0 0 0 0 0 0 0 0 0 0 0 0 0 0 0 0 127 0" result="hardAlpha"/>
<feOffset dy="2"/>
<feGaussianBlur stdDeviation="1"/>
<feComposite in2="hardAlpha" operator="out"/>
<feColorMatrix type="matrix" values="0 0 0 0 0 0 0 0 0 0 0 0 0 0 0 0 0 0 0.25 0"/>
<feBlend mode="normal" in2="BackgroundImageFix" result="effect1_dropShadow_205_35"/>
<feBlend mode="normal" in="SourceGraphic" in2="effect1_dropShadow_205_35" result="shape"/>
</filter>
<linearGradient id="paint0_linear_205_35" x1="1012" y1="371.875" x2="1012" y2="-71.875" gradientUnits="userSpaceOnUse">
<stop offset="0.348958" stop-color="#E84057"/>
<stop offset="1" stop-color="#E4E4E4"/>
</linearGradient>
<linearGradient id="paint1_linear_205_35" x1="196" y1="384.891" x2="537.682" y2="199.86" gradientUnits="userSpaceOnUse">
<stop offset="0.348958" stop-color="#E84057"/>
<stop offset="1" stop-color="#E4E4E4"/>
</linearGradient>
<linearGradient id="paint2_linear_205_35" x1="-4.58594e-06" y1="425.584" x2="341.682" y2="240.552" gradientUnits="userSpaceOnUse">
<stop offset="0.348958" stop-color="#E84057"/>
<stop offset="1" stop-color="#E4E4E4"/>
</linearGradient>
</defs>
</svg>
