<svg width="327" height="22" viewBox="0 0 327 22" fill="none" xmlns="http://www.w3.org/2000/svg">
<path d="M1.83839 18V1.632H15.8524C18.0231 1.632 19.5631 1.984 20.4724 2.688C21.3817 3.37733 21.8364 4.272 21.8364 5.372V5.68C21.8364 6.17867 21.7411 6.63333 21.5504 7.044C21.3597 7.44 21.1177 7.76267 20.8244 8.012C20.5311 8.24667 20.2524 8.43 19.9884 8.562C19.7391 8.694 19.4897 8.79667 19.2404 8.87C19.5924 8.958 19.9371 9.08267 20.2744 9.244C20.6264 9.40533 21.0004 9.64 21.3964 9.948C21.8071 10.256 22.1371 10.674 22.3864 11.202C22.6357 11.7153 22.7604 12.3093 22.7604 12.984V13.292C22.7604 16.4307 20.5017 18 15.9844 18H1.83839ZM14.9724 5.086H6.96439V7.748H14.9724C16.1604 7.748 16.7544 7.308 16.7544 6.428V6.384C16.7544 5.51867 16.1604 5.086 14.9724 5.086ZM15.4124 11.224H6.96439V14.436H15.4124C16.7617 14.436 17.4364 13.9007 17.4364 12.83V12.742C17.4364 11.73 16.7617 11.224 15.4124 11.224ZM24.2466 1.632H29.3726V13.93H40.7466V18H24.2466V1.632ZM52.4939 18.242H51.7019C50.4846 18.242 49.3699 18.1393 48.3579 17.934C47.3606 17.714 46.5172 17.428 45.8279 17.076C45.1386 16.724 44.5299 16.2987 44.0019 15.8C43.4739 15.3013 43.0559 14.7953 42.7479 14.282C42.4399 13.7687 42.1832 13.2187 41.9779 12.632C41.7872 12.0453 41.6552 11.51 41.5819 11.026C41.5232 10.542 41.4939 10.058 41.4939 9.574V1.632H46.6419V9.266C46.6419 9.85267 46.7152 10.4027 46.8619 10.916C47.0232 11.4147 47.2872 11.9133 47.6539 12.412C48.0206 12.896 48.5779 13.2847 49.3259 13.578C50.0886 13.8567 50.9979 13.996 52.0539 13.996C53.0952 13.996 53.9826 13.8567 54.7159 13.578C55.4639 13.2847 56.0212 12.896 56.3879 12.412C56.7692 11.9133 57.0332 11.4147 57.1799 10.916C57.3412 10.4027 57.4219 9.85267 57.4219 9.266V1.632H62.5479V9.574C62.5479 10.278 62.4672 10.982 62.3059 11.686C62.1592 12.3753 61.8586 13.1307 61.4039 13.952C60.9639 14.7587 60.3846 15.47 59.6659 16.086C58.9619 16.702 57.9866 17.2153 56.7399 17.626C55.5079 18.0367 54.0926 18.242 52.4939 18.242ZM64.7232 1.632H81.9712V5.35H69.7832V7.77H81.6852V11.51H69.7832V14.194H82.1912V18H64.7232V1.632Z" fill="white"/>
<path d="M267.314 5.35V8.562H275.08C275.769 8.562 276.283 8.41533 276.62 8.122C276.972 7.82867 277.148 7.44 277.148 6.956V6.934C277.148 6.46467 276.979 6.08333 276.642 5.79C276.305 5.49667 275.784 5.35 275.08 5.35H267.314ZM267.314 12.192V18H262.188V1.632H275.388C280.125 1.632 282.494 3.04733 282.494 5.878V6.142C282.494 6.68467 282.391 7.18333 282.186 7.638C281.981 8.078 281.702 8.43733 281.35 8.716C281.013 8.98 280.69 9.19267 280.382 9.354C280.089 9.50067 279.781 9.62533 279.458 9.728C280.367 9.96267 281.108 10.4027 281.68 11.048C282.267 11.6933 282.56 12.5073 282.56 13.49V15.888C282.56 16.812 282.663 17.4793 282.868 17.89V18H277.654C277.493 17.7947 277.412 17.45 277.412 16.966V15.074C277.412 14.062 277.155 13.3287 276.642 12.874C276.129 12.4193 275.249 12.192 274.002 12.192H267.314ZM284.446 1.632H301.694V5.35H289.506V7.77H301.408V11.51H289.506V14.194H301.914V18H284.446V1.632ZM303.911 18V1.632H314.757C316.282 1.632 317.661 1.73467 318.893 1.94C320.125 2.14533 321.151 2.446 321.973 2.842C322.794 3.22333 323.498 3.656 324.085 4.14C324.671 4.60933 325.119 5.14467 325.427 5.746C325.735 6.34733 325.955 6.94133 326.087 7.528C326.233 8.1 326.307 8.716 326.307 9.376V10.036C326.307 10.8133 326.219 11.5467 326.043 12.236C325.867 12.9253 325.515 13.6367 324.987 14.37C324.473 15.0887 323.806 15.712 322.985 16.24C322.163 16.7533 321.049 17.1787 319.641 17.516C318.233 17.8387 316.612 18 314.779 18H303.911ZM309.037 5.504V14.062H314.361C318.746 14.062 320.939 12.654 320.939 9.838V9.706C320.939 6.90467 318.746 5.504 314.361 5.504H309.037Z" fill="white"/>
</svg>
