<svg width="372" height="242" viewBox="0 0 372 242" fill="none" xmlns="http://www.w3.org/2000/svg">
<g clip-path="url(#clip0_207_1695)">
<rect width="372" height="242" fill="#1E2025"/>
<path d="M484.184 20.039C484.516 19.9615 484.864 20.0003 485.17 20.1489C485.477 20.2975 485.722 20.5467 485.864 20.8544C486.007 21.162 486.038 21.5092 485.953 21.8371C485.867 22.1651 485.671 22.4536 485.396 22.6538L214.803 221.973L247.064 284.715C247.226 285.013 247.28 285.357 247.216 285.689C247.153 286.021 246.976 286.321 246.715 286.539C246.454 286.756 246.126 286.878 245.786 286.883C245.446 286.888 245.115 286.776 244.848 286.566L186 243.215L127.138 286.551C126.842 286.775 126.473 286.88 126.103 286.845L125.586 286.698C125.412 286.611 125.256 286.491 125.129 286.344C125.002 286.196 124.906 286.026 124.845 285.841C124.785 285.657 124.762 285.463 124.777 285.269C124.793 285.076 124.847 284.888 124.936 284.715L157.182 221.973L-113.396 22.6538C-113.671 22.4536 -113.867 22.1651 -113.953 21.8371C-114.038 21.5092 -114.007 21.162 -113.864 20.8544C-113.722 20.5467 -113.477 20.2975 -113.17 20.1489C-112.864 20.0003 -112.516 19.9615 -112.184 20.039L140.527 78.5507C140.735 78.6 140.931 78.694 141.099 78.8259C141.268 78.9578 141.405 79.1245 141.502 79.3146L186 165.9L230.498 79.3146C230.629 79.0554 230.835 78.8407 231.089 78.6976L231.488 78.5507L484.184 20.039Z" fill="#FAFAFA" fill-opacity="0.03"/>
<path d="M171.553 109.573H165.215L172.605 124.011H179.298L186.699 109.573H180.361L175.957 119.596L171.553 109.573ZM192.21 114.311C192.21 113.161 194.358 112.903 196.109 112.903C197.871 112.903 199.364 113.172 200.009 114.311H205.906C205.369 109.799 201.169 109.229 196.109 109.197C191.039 109.197 186.312 110.186 186.312 114.311C186.302 117.92 191.963 118.199 195.991 118.403C198.258 118.511 200.009 118.607 200.009 119.241C200.009 120.358 197.86 120.648 196.109 120.648C194.348 120.648 192.854 120.358 192.21 119.241H186.312C186.85 123.721 191.05 124.333 196.109 124.344C201.18 124.344 205.906 123.366 205.906 119.241C205.917 115.621 200.256 115.342 196.228 115.138C193.961 115.03 192.21 114.944 192.21 114.311Z" fill="#FAFAFA" fill-opacity="0.9"/>
</g>
<defs>
<clipPath id="clip0_207_1695">
<rect width="372" height="242" fill="white"/>
</clipPath>
</defs>
</svg>
