<svg width="372" height="222" viewBox="0 0 372 222" fill="none" xmlns="http://www.w3.org/2000/svg">
<path d="M484.184 0.0389723C484.516 -0.0385314 484.864 0.000297806 485.17 0.148893C485.477 0.297489 485.722 0.546713 485.864 0.854372C486.007 1.16203 486.038 1.50922 485.953 1.83715C485.867 2.16507 485.671 2.45359 485.396 2.65385L214.803 201.973L247.064 264.715C247.226 265.013 247.28 265.357 247.216 265.689C247.153 266.021 246.976 266.321 246.715 266.539C246.454 266.756 246.126 266.878 245.786 266.883C245.446 266.888 245.115 266.776 244.848 266.566L186 223.215L127.138 266.551C126.842 266.775 126.473 266.88 126.103 266.845L125.586 266.698C125.412 266.611 125.256 266.491 125.129 266.344C125.002 266.196 124.906 266.026 124.845 265.841C124.785 265.657 124.762 265.463 124.777 265.269C124.793 265.076 124.847 264.888 124.936 264.715L157.182 201.973L-113.396 2.65385C-113.671 2.45359 -113.867 2.16507 -113.953 1.83715C-114.038 1.50922 -114.007 1.16203 -113.864 0.854372C-113.722 0.546713 -113.477 0.297489 -113.17 0.148893C-112.864 0.000297806 -112.516 -0.0385314 -112.184 0.0389723L140.527 58.5507C140.735 58.6 140.931 58.694 141.099 58.8259C141.268 58.9578 141.405 59.1245 141.502 59.3146L186 145.9L230.498 59.3146C230.629 59.0554 230.835 58.8407 231.089 58.6976L231.488 58.5507L484.184 0.0389723Z" fill="#FAFAFA" fill-opacity="0.03"/>
</svg>
