<svg width="360" height="100" viewBox="0 0 360 100" fill="none" xmlns="http://www.w3.org/2000/svg">
<g clip-path="url(#clip0_215_1538)">
<rect width="360" height="100" rx="10" fill="#27282D"/>
<path d="M378.789 -6.97404C379.01 -7.02567 379.243 -6.9998 379.447 -6.90082C379.651 -6.80183 379.815 -6.63582 379.91 -6.43088C380.005 -6.22594 380.025 -5.99467 379.969 -5.77623C379.912 -5.55779 379.78 -5.3656 379.597 -5.2322L199.202 127.539L220.71 169.334C220.818 169.532 220.853 169.761 220.811 169.982C220.768 170.204 220.65 170.404 220.477 170.548C220.303 170.693 220.084 170.774 219.857 170.778C219.631 170.781 219.41 170.706 219.232 170.567L180 141.689L140.758 170.557C140.561 170.706 140.315 170.776 140.069 170.753L139.724 170.655C139.608 170.597 139.504 170.516 139.42 170.418C139.335 170.32 139.27 170.207 139.23 170.084C139.19 169.961 139.174 169.832 139.185 169.703C139.195 169.574 139.231 169.449 139.29 169.334L160.788 127.539L-19.5972 -5.2322C-19.7805 -5.3656 -19.9116 -5.55779 -19.9686 -5.77623C-20.0255 -5.99467 -20.0047 -6.22594 -19.9096 -6.43088C-19.8146 -6.63582 -19.6511 -6.80183 -19.447 -6.90082C-19.2428 -6.9998 -19.0105 -7.02567 -18.7893 -6.97404L149.685 32.0021C149.824 32.035 149.954 32.0976 150.066 32.1854C150.178 32.2733 150.27 32.3844 150.335 32.511L180 90.1875L209.665 32.511C209.753 32.3383 209.89 32.1953 210.059 32.1L210.325 32.0021L378.789 -6.97404Z" fill="white" fill-opacity="0.1"/>
</g>
<defs>
<clipPath id="clip0_215_1538">
<rect width="360" height="100" rx="10" fill="white"/>
</clipPath>
</defs>
</svg>
