<svg width="327" height="22" viewBox="0 0 327 22" fill="none" xmlns="http://www.w3.org/2000/svg">
<path d="M6.314 5.35V8.562H14.08C14.7693 8.562 15.2827 8.41533 15.62 8.122C15.972 7.82867 16.148 7.44 16.148 6.956V6.934C16.148 6.46467 15.9793 6.08333 15.642 5.79C15.3047 5.49667 14.784 5.35 14.08 5.35H6.314ZM6.314 12.192V18H1.188V1.632H14.388C19.1253 1.632 21.494 3.04733 21.494 5.878V6.142C21.494 6.68467 21.3913 7.18333 21.186 7.638C20.9807 8.078 20.702 8.43733 20.35 8.716C20.0127 8.98 19.69 9.19267 19.382 9.354C19.0887 9.50067 18.7807 9.62533 18.458 9.728C19.3673 9.96267 20.108 10.4027 20.68 11.048C21.2667 11.6933 21.56 12.5073 21.56 13.49V15.888C21.56 16.812 21.6627 17.4793 21.868 17.89V18H16.654C16.4927 17.7947 16.412 17.45 16.412 16.966V15.074C16.412 14.062 16.1553 13.3287 15.642 12.874C15.1287 12.4193 14.2487 12.192 13.002 12.192H6.314ZM23.4458 1.632H40.6938V5.35H28.5058V7.77H40.4078V11.51H28.5058V14.194H40.9138V18H23.4458V1.632ZM42.9107 18V1.632H53.7567C55.282 1.632 56.6607 1.73467 57.8927 1.94C59.1247 2.14533 60.1513 2.446 60.9727 2.842C61.794 3.22333 62.498 3.656 63.0847 4.14C63.6713 4.60933 64.1187 5.14467 64.4267 5.746C64.7347 6.34733 64.9547 6.94133 65.0867 7.528C65.2333 8.1 65.3067 8.716 65.3067 9.376V10.036C65.3067 10.8133 65.2187 11.5467 65.0427 12.236C64.8667 12.9253 64.5147 13.6367 63.9867 14.37C63.4733 15.0887 62.806 15.712 61.9847 16.24C61.1633 16.7533 60.0487 17.1787 58.6407 17.516C57.2327 17.8387 55.612 18 53.7787 18H42.9107ZM48.0367 5.504V14.062H53.3607C57.746 14.062 59.9387 12.654 59.9387 9.838V9.706C59.9387 6.90467 57.746 5.504 53.3607 5.504H48.0367Z" fill="white"/>
<path d="M245.838 18V1.632H259.852C262.023 1.632 263.563 1.984 264.472 2.688C265.382 3.37733 265.836 4.272 265.836 5.372V5.68C265.836 6.17867 265.741 6.63333 265.55 7.044C265.36 7.44 265.118 7.76267 264.824 8.012C264.531 8.24667 264.252 8.43 263.988 8.562C263.739 8.694 263.49 8.79667 263.24 8.87C263.592 8.958 263.937 9.08267 264.274 9.244C264.626 9.40533 265 9.64 265.396 9.948C265.807 10.256 266.137 10.674 266.386 11.202C266.636 11.7153 266.76 12.3093 266.76 12.984V13.292C266.76 16.4307 264.502 18 259.984 18H245.838ZM258.972 5.086H250.964V7.748H258.972C260.16 7.748 260.754 7.308 260.754 6.428V6.384C260.754 5.51867 260.16 5.086 258.972 5.086ZM259.412 11.224H250.964V14.436H259.412C260.762 14.436 261.436 13.9007 261.436 12.83V12.742C261.436 11.73 260.762 11.224 259.412 11.224ZM268.247 1.632H273.373V13.93H284.747V18H268.247V1.632ZM296.494 18.242H295.702C294.485 18.242 293.37 18.1393 292.358 17.934C291.361 17.714 290.517 17.428 289.828 17.076C289.139 16.724 288.53 16.2987 288.002 15.8C287.474 15.3013 287.056 14.7953 286.748 14.282C286.44 13.7687 286.183 13.2187 285.978 12.632C285.787 12.0453 285.655 11.51 285.582 11.026C285.523 10.542 285.494 10.058 285.494 9.574V1.632H290.642V9.266C290.642 9.85267 290.715 10.4027 290.862 10.916C291.023 11.4147 291.287 11.9133 291.654 12.412C292.021 12.896 292.578 13.2847 293.326 13.578C294.089 13.8567 294.998 13.996 296.054 13.996C297.095 13.996 297.983 13.8567 298.716 13.578C299.464 13.2847 300.021 12.896 300.388 12.412C300.769 11.9133 301.033 11.4147 301.18 10.916C301.341 10.4027 301.422 9.85267 301.422 9.266V1.632H306.548V9.574C306.548 10.278 306.467 10.982 306.306 11.686C306.159 12.3753 305.859 13.1307 305.404 13.952C304.964 14.7587 304.385 15.47 303.666 16.086C302.962 16.702 301.987 17.2153 300.74 17.626C299.508 18.0367 298.093 18.242 296.494 18.242ZM308.723 1.632H325.971V5.35H313.783V7.77H325.685V11.51H313.783V14.194H326.191V18H308.723V1.632Z" fill="white"/>
</svg>
