<svg width="41" height="16" viewBox="0 0 41 16" fill="none" xmlns="http://www.w3.org/2000/svg">
<path d="M6.55273 0.573242H0.214844L7.60547 15.0107H14.2979L21.6992 0.573242H15.3613L10.957 10.5957L6.55273 0.573242ZM27.21 5.31055C27.21 4.16113 29.3584 3.90332 31.1094 3.90332C32.8711 3.90332 34.3643 4.17188 35.0088 5.31055H40.9062C40.3691 0.798828 36.1689 0.229492 31.1094 0.197266C26.0391 0.197266 21.3125 1.18555 21.3125 5.31055C21.3018 8.91992 26.9629 9.19922 30.9912 9.40332C33.2578 9.51074 35.0088 9.60742 35.0088 10.2412C35.0088 11.3584 32.8604 11.6484 31.1094 11.6484C29.3477 11.6484 27.8545 11.3584 27.21 10.2412H21.3125C21.8496 14.7207 26.0498 15.333 31.1094 15.3438C36.1797 15.3438 40.9062 14.3662 40.9062 10.2412C40.917 6.62109 35.2559 6.3418 31.2275 6.1377C28.9609 6.03027 27.21 5.94434 27.21 5.31055Z" fill="#FAFAFA" fill-opacity="0.9"/>
</svg>
