<svg width="82" height="18" viewBox="0 0 82 18" fill="none" xmlns="http://www.w3.org/2000/svg">
<path d="M0.838391 17V0.632H14.8524C17.0231 0.632 18.5631 0.983999 19.4724 1.688C20.3817 2.37733 20.8364 3.272 20.8364 4.372V4.68C20.8364 5.17867 20.7411 5.63333 20.5504 6.044C20.3597 6.44 20.1177 6.76267 19.8244 7.012C19.5311 7.24667 19.2524 7.43 18.9884 7.562C18.7391 7.694 18.4897 7.79667 18.2404 7.87C18.5924 7.958 18.9371 8.08267 19.2744 8.244C19.6264 8.40533 20.0004 8.64 20.3964 8.948C20.8071 9.256 21.1371 9.674 21.3864 10.202C21.6357 10.7153 21.7604 11.3093 21.7604 11.984V12.292C21.7604 15.4307 19.5017 17 14.9844 17H0.838391ZM13.9724 4.086H5.96439V6.748H13.9724C15.1604 6.748 15.7544 6.308 15.7544 5.428V5.384C15.7544 4.51867 15.1604 4.086 13.9724 4.086ZM14.4124 10.224H5.96439V13.436H14.4124C15.7617 13.436 16.4364 12.9007 16.4364 11.83V11.742C16.4364 10.73 15.7617 10.224 14.4124 10.224ZM23.2466 0.632H28.3726V12.93H39.7466V17H23.2466V0.632ZM51.4939 17.242H50.7019C49.4846 17.242 48.3699 17.1393 47.3579 16.934C46.3606 16.714 45.5172 16.428 44.8279 16.076C44.1386 15.724 43.5299 15.2987 43.0019 14.8C42.4739 14.3013 42.0559 13.7953 41.7479 13.282C41.4399 12.7687 41.1832 12.2187 40.9779 11.632C40.7872 11.0453 40.6552 10.51 40.5819 10.026C40.5232 9.542 40.4939 9.058 40.4939 8.574V0.632H45.6419V8.266C45.6419 8.85267 45.7152 9.40267 45.8619 9.916C46.0232 10.4147 46.2872 10.9133 46.6539 11.412C47.0206 11.896 47.5779 12.2847 48.3259 12.578C49.0886 12.8567 49.9979 12.996 51.0539 12.996C52.0952 12.996 52.9826 12.8567 53.7159 12.578C54.4639 12.2847 55.0212 11.896 55.3879 11.412C55.7692 10.9133 56.0332 10.4147 56.1799 9.916C56.3412 9.40267 56.4219 8.85267 56.4219 8.266V0.632H61.5479V8.574C61.5479 9.278 61.4672 9.982 61.3059 10.686C61.1592 11.3753 60.8586 12.1307 60.4039 12.952C59.9639 13.7587 59.3846 14.47 58.6659 15.086C57.9619 15.702 56.9866 16.2153 55.7399 16.626C54.5079 17.0367 53.0926 17.242 51.4939 17.242ZM63.7232 0.632H80.9712V4.35H68.7832V6.77H80.6852V10.51H68.7832V13.194H81.1912V17H63.7232V0.632Z" fill="white"/>
</svg>
