<svg width="65" height="17" viewBox="0 0 65 17" fill="none" xmlns="http://www.w3.org/2000/svg">
<path d="M5.314 4.35V7.562H13.08C13.7693 7.562 14.2827 7.41533 14.62 7.122C14.972 6.82867 15.148 6.44 15.148 5.956V5.934C15.148 5.46467 14.9793 5.08333 14.642 4.79C14.3047 4.49667 13.784 4.35 13.08 4.35H5.314ZM5.314 11.192V17H0.188V0.632H13.388C18.1253 0.632 20.494 2.04733 20.494 4.878V5.142C20.494 5.68467 20.3913 6.18333 20.186 6.638C19.9807 7.078 19.702 7.43733 19.35 7.716C19.0127 7.98 18.69 8.19267 18.382 8.354C18.0887 8.50067 17.7807 8.62533 17.458 8.728C18.3673 8.96267 19.108 9.40267 19.68 10.048C20.2667 10.6933 20.56 11.5073 20.56 12.49V14.888C20.56 15.812 20.6627 16.4793 20.868 16.89V17H15.654C15.4927 16.7947 15.412 16.45 15.412 15.966V14.074C15.412 13.062 15.1553 12.3287 14.642 11.874C14.1287 11.4193 13.2487 11.192 12.002 11.192H5.314ZM22.4458 0.632H39.6938V4.35H27.5058V6.77H39.4078V10.51H27.5058V13.194H39.9138V17H22.4458V0.632ZM41.9107 17V0.632H52.7567C54.282 0.632 55.6607 0.734666 56.8927 0.94C58.1247 1.14533 59.1513 1.446 59.9727 1.842C60.794 2.22333 61.498 2.656 62.0847 3.14C62.6713 3.60933 63.1187 4.14467 63.4267 4.746C63.7347 5.34733 63.9547 5.94133 64.0867 6.528C64.2333 7.1 64.3067 7.716 64.3067 8.376V9.036C64.3067 9.81333 64.2187 10.5467 64.0427 11.236C63.8667 11.9253 63.5147 12.6367 62.9867 13.37C62.4733 14.0887 61.806 14.712 60.9847 15.24C60.1633 15.7533 59.0487 16.1787 57.6407 16.516C56.2327 16.8387 54.612 17 52.7787 17H41.9107ZM47.0367 4.504V13.062H52.3607C56.746 13.062 58.9387 11.654 58.9387 8.838V8.706C58.9387 5.90467 56.746 4.504 52.3607 4.504H47.0367Z" fill="white"/>
</svg>
